<svg xmlns="http://www.w3.org/2000/svg" width="178" height="48" viewBox="0 0 178 48">
  <g id="Group_462" data-name="Group 462" transform="translate(1418.096 10288.237)">
    <rect id="Rectangle_121" data-name="Rectangle 121" width="178" height="48" transform="translate(-1418.096 -10288.237)" fill="none"/>
    <g id="Group_449" data-name="Group 449" transform="translate(-1418.094 -10288.147)">
      <path id="Path_2335" data-name="Path 2335" d="M11.955,0h23.91A11.955,11.955,0,0,1,47.82,11.955v23.91A11.955,11.955,0,0,1,35.865,47.82H11.955A11.955,11.955,0,0,1,0,35.865V11.955A11.955,11.955,0,0,1,11.955,0Z" fill="none"/>
      <g id="Group_434" data-name="Group 434" transform="translate(5.928 5.733)">
        <path id="Union_55" data-name="Union 55" d="M19.769,36.528V16.092A16.008,16.008,0,0,1,35.692,0V25.8A10.672,10.672,0,0,1,25.076,36.528Zm-9.154,0A10.672,10.672,0,0,1,0,25.8V0A16.008,16.008,0,0,1,15.923,16.092V36.528Z" transform="translate(0 0)" fill="#892092"/>
      </g>
    </g>
    <path id="Path_2346" data-name="Path 2346" d="M3.49.016H.336a4.893,4.893,0,0,0,.5,2.365,4.664,4.664,0,0,0,1.4,1.639,5.976,5.976,0,0,0,2.033.944,9.36,9.36,0,0,0,2.376.3A9.122,9.122,0,0,0,9.31,4.913a5.638,5.638,0,0,0,1.93-.986,4.1,4.1,0,0,0,1.172-1.5A4.527,4.527,0,0,0,12.807.535a3.632,3.632,0,0,0-.529-2.044,4.42,4.42,0,0,0-1.255-1.276,5.519,5.519,0,0,0-1.463-.7q-.737-.218-1.152-.3-1.39-.353-2.251-.581a8.351,8.351,0,0,1-1.349-.456,1.482,1.482,0,0,1-.654-.5,1.332,1.332,0,0,1-.166-.705A1.393,1.393,0,0,1,4.2-6.81a1.8,1.8,0,0,1,.529-.519,2.109,2.109,0,0,1,.716-.29A3.818,3.818,0,0,1,6.229-7.7a5.556,5.556,0,0,1,1.11.1,2.676,2.676,0,0,1,.9.353,1.833,1.833,0,0,1,.633.685,2.619,2.619,0,0,1,.28,1.1h3.154a4.55,4.55,0,0,0-.488-2.189A4.251,4.251,0,0,0,10.5-9.134a5.564,5.564,0,0,0-1.9-.84,9.425,9.425,0,0,0-2.231-.259,7.591,7.591,0,0,0-1.992.27,5.561,5.561,0,0,0-1.784.83,4.418,4.418,0,0,0-1.276,1.4A3.879,3.879,0,0,0,.834-5.752,3.623,3.623,0,0,0,1.218-4.02,3.664,3.664,0,0,0,2.224-2.826a5.561,5.561,0,0,0,1.411.778,14.187,14.187,0,0,0,1.618.508q.809.228,1.6.415a10.044,10.044,0,0,1,1.411.436,3.044,3.044,0,0,1,1.006.622,1.3,1.3,0,0,1,.384.975,1.432,1.432,0,0,1-.29.923,2.037,2.037,0,0,1-.726.571,3.249,3.249,0,0,1-.934.28,6.49,6.49,0,0,1-.934.073A4.952,4.952,0,0,1,5.524,2.6a3.1,3.1,0,0,1-1.048-.477,2.357,2.357,0,0,1-.716-.84A2.717,2.717,0,0,1,3.49.016Zm18.156-1.6H16.853a3.382,3.382,0,0,1,.135-.705,2.166,2.166,0,0,1,.394-.747,2.232,2.232,0,0,1,.747-.591A2.563,2.563,0,0,1,19.3-3.864a2.069,2.069,0,0,1,1.608.581A3.405,3.405,0,0,1,21.646-1.581ZM16.853.286h7.74A7.573,7.573,0,0,0,24.385-2.1a5.841,5.841,0,0,0-.944-2.033,4.762,4.762,0,0,0-1.67-1.421,5.1,5.1,0,0,0-2.386-.529,5.556,5.556,0,0,0-2.231.436,5.274,5.274,0,0,0-1.733,1.193A5.259,5.259,0,0,0,14.3-2.66a6.257,6.257,0,0,0-.394,2.241,6.532,6.532,0,0,0,.384,2.282A5.183,5.183,0,0,0,15.38,3.647,4.746,4.746,0,0,0,17.1,4.8a6.127,6.127,0,0,0,2.282.4,5.619,5.619,0,0,0,3.112-.83,4.924,4.924,0,0,0,1.909-2.76H21.812a1.851,1.851,0,0,1-.788.944A2.627,2.627,0,0,1,19.488,3a2.634,2.634,0,0,1-1.909-.643A2.979,2.979,0,0,1,16.853.286Zm16.786-2.3h2.884a4.036,4.036,0,0,0-.5-1.795,4.054,4.054,0,0,0-1.131-1.266,4.9,4.9,0,0,0-1.577-.757,6.726,6.726,0,0,0-1.836-.249,5.851,5.851,0,0,0-2.324.436,4.891,4.891,0,0,0-1.722,1.214,5.205,5.205,0,0,0-1.069,1.847A7.147,7.147,0,0,0,26-.274a6.008,6.008,0,0,0,.394,2.21,5.15,5.15,0,0,0,1.1,1.733A4.9,4.9,0,0,0,29.209,4.8a5.871,5.871,0,0,0,2.21.4,5.357,5.357,0,0,0,3.507-1.12A4.861,4.861,0,0,0,36.586.825H33.743a2.8,2.8,0,0,1-.716,1.587A2.159,2.159,0,0,1,31.4,3a2.081,2.081,0,0,1-1.162-.311,2.325,2.325,0,0,1-.757-.8A3.659,3.659,0,0,1,29.074.8,5.828,5.828,0,0,1,28.95-.378a6.078,6.078,0,0,1,.124-1.214,3.585,3.585,0,0,1,.425-1.12,2.556,2.556,0,0,1,.778-.83,2.069,2.069,0,0,1,1.183-.322A1.975,1.975,0,0,1,33.639-2.017Zm4.606-3.776V4.934h2.946V.1a5.929,5.929,0,0,1,.145-1.349,2.954,2.954,0,0,1,.488-1.089,2.372,2.372,0,0,1,.9-.737,3.139,3.139,0,0,1,1.369-.27,5.262,5.262,0,0,1,.56.031q.29.031.5.073V-5.98a2.3,2.3,0,0,0-.643-.1,3.518,3.518,0,0,0-1.079.166,3.954,3.954,0,0,0-.975.467,3.67,3.67,0,0,0-.809.726,3.623,3.623,0,0,0-.56.923h-.042V-5.794ZM53.165-1.581H48.371a3.382,3.382,0,0,1,.135-.705,2.166,2.166,0,0,1,.394-.747,2.232,2.232,0,0,1,.747-.591,2.563,2.563,0,0,1,1.172-.239,2.069,2.069,0,0,1,1.608.581A3.405,3.405,0,0,1,53.165-1.581ZM48.371.286h7.74A7.573,7.573,0,0,0,55.9-2.1a5.841,5.841,0,0,0-.944-2.033,4.762,4.762,0,0,0-1.67-1.421A5.1,5.1,0,0,0,50.9-6.084a5.556,5.556,0,0,0-2.231.436A5.274,5.274,0,0,0,46.94-4.455a5.259,5.259,0,0,0-1.12,1.795,6.257,6.257,0,0,0-.394,2.241,6.532,6.532,0,0,0,.384,2.282A5.183,5.183,0,0,0,46.9,3.647,4.746,4.746,0,0,0,48.62,4.8a6.127,6.127,0,0,0,2.282.4,5.619,5.619,0,0,0,3.112-.83,4.924,4.924,0,0,0,1.909-2.76H53.331a1.851,1.851,0,0,1-.788.944,3.021,3.021,0,0,1-3.444-.2A2.979,2.979,0,0,1,48.371.286Zm13.217-6.08V-9.01H58.642v3.216H56.858v1.971h1.784V2.506a2.741,2.741,0,0,0,.27,1.307,1.922,1.922,0,0,0,.737.768,3.058,3.058,0,0,0,1.079.363,8.6,8.6,0,0,0,1.3.093q.436,0,.892-.021a7.011,7.011,0,0,0,.83-.083V2.651a4.128,4.128,0,0,1-.436.062q-.228.021-.477.021a1.442,1.442,0,0,1-1-.249,1.442,1.442,0,0,1-.249-1V-3.822h2.158V-5.794ZM74.5,2.195V-7.142h2.324a5.26,5.26,0,0,1,2.023.342,3.175,3.175,0,0,1,1.318.986,4.036,4.036,0,0,1,.716,1.546,8.639,8.639,0,0,1,.218,2.023A6.07,6.07,0,0,1,80.782-.17a3.806,3.806,0,0,1-.83,1.38,3.014,3.014,0,0,1-1.183.757,4.184,4.184,0,0,1-1.369.228ZM71.237-9.881V4.934h6.391a7.092,7.092,0,0,0,2.957-.571,5.883,5.883,0,0,0,2.1-1.567A6.575,6.575,0,0,0,83.936.431a10.264,10.264,0,0,0,.415-2.988,9.232,9.232,0,0,0-.508-3.216,6.322,6.322,0,0,0-1.411-2.282,5.788,5.788,0,0,0-2.137-1.369,7.629,7.629,0,0,0-2.666-.456ZM89.331-7.454V-9.881H86.385v2.428Zm-2.946,1.66V4.934h2.946V-5.794Zm5.146,3.3a3.423,3.423,0,0,1,.519-1.722,3.532,3.532,0,0,1,1.162-1.1A5.064,5.064,0,0,1,94.8-5.908a9.025,9.025,0,0,1,1.774-.176,12.023,12.023,0,0,1,1.639.114,5.014,5.014,0,0,1,1.515.446,2.984,2.984,0,0,1,1.12.923,2.58,2.58,0,0,1,.436,1.567V2.548a11.211,11.211,0,0,0,.083,1.39,2.513,2.513,0,0,0,.29,1H98.668a4.228,4.228,0,0,1-.135-.508,4.423,4.423,0,0,1-.073-.529A3.84,3.84,0,0,1,96.8,4.913a6.663,6.663,0,0,1-1.95.29,5.269,5.269,0,0,1-1.432-.187,3.279,3.279,0,0,1-1.162-.581,2.7,2.7,0,0,1-.778-1,3.367,3.367,0,0,1-.28-1.432A3.128,3.128,0,0,1,91.52.5a2.689,2.689,0,0,1,.83-.944,3.719,3.719,0,0,1,1.162-.529,12.405,12.405,0,0,1,1.318-.28q.664-.1,1.307-.166A7.862,7.862,0,0,0,97.278-1.6a1.99,1.99,0,0,0,.788-.363.8.8,0,0,0,.27-.7,1.563,1.563,0,0,0-.156-.757,1.144,1.144,0,0,0-.415-.436,1.632,1.632,0,0,0-.6-.207,4.924,4.924,0,0,0-.737-.052,2.236,2.236,0,0,0-1.369.373,1.667,1.667,0,0,0-.581,1.245ZM98.336-.316a1.322,1.322,0,0,1-.467.259,4.768,4.768,0,0,1-.6.156q-.322.062-.674.1t-.705.1a5.322,5.322,0,0,0-.654.166,1.933,1.933,0,0,0-.56.28,1.331,1.331,0,0,0-.384.446,1.435,1.435,0,0,0-.145.685,1.386,1.386,0,0,0,.145.664,1.114,1.114,0,0,0,.394.425,1.664,1.664,0,0,0,.581.218,3.708,3.708,0,0,0,.685.062,2.6,2.6,0,0,0,1.349-.29,1.943,1.943,0,0,0,.705-.7,2.223,2.223,0,0,0,.28-.82,5.631,5.631,0,0,0,.052-.664Zm5.229-5.478V4.934h2.946V.1a5.93,5.93,0,0,1,.145-1.349,2.954,2.954,0,0,1,.488-1.089,2.372,2.372,0,0,1,.9-.737,3.139,3.139,0,0,1,1.369-.27,5.262,5.262,0,0,1,.56.031q.29.031.5.073V-5.98a2.3,2.3,0,0,0-.643-.1,3.519,3.519,0,0,0-1.079.166,3.954,3.954,0,0,0-.975.467,3.67,3.67,0,0,0-.809.726,3.623,3.623,0,0,0-.56.923h-.041V-5.794ZM116.928,6.262,121.41-5.794h-3.05l-2.345,7.345h-.042l-2.428-7.345h-3.133L114.168,4.27a1.771,1.771,0,0,1,.124.664,1.471,1.471,0,0,1-.28.871,1.145,1.145,0,0,1-.861.456,6.113,6.113,0,0,1-.871-.021l-.851-.083V8.586q.456.041.9.073t.9.031a4.273,4.273,0,0,0,2.365-.56A3.628,3.628,0,0,0,116.928,6.262Z" transform="translate(-1365.987 -10262.896)" fill="#892092"/>
  </g>
</svg>
