<svg xmlns="http://www.w3.org/2000/svg" width="80" height="33" viewBox="0 0 80 33">
  <g id="Group_453" data-name="Group 453" transform="translate(1418.04 10288.5)">
    <rect id="Rectangle_116" data-name="Rectangle 116" width="80" height="33" transform="translate(-1418.04 -10288.5)" fill="none"/>
    <path id="Path_2340" data-name="Path 2340" d="M2.112-2.844H.288A2.83,2.83,0,0,0,.576-1.476a2.7,2.7,0,0,0,.81.948A3.456,3.456,0,0,0,2.562.018,5.413,5.413,0,0,0,3.936.192a5.276,5.276,0,0,0,1.542-.2,3.261,3.261,0,0,0,1.116-.57,2.372,2.372,0,0,0,.678-.87A2.618,2.618,0,0,0,7.5-2.544a2.1,2.1,0,0,0-.306-1.182,2.556,2.556,0,0,0-.726-.738,3.192,3.192,0,0,0-.846-.4Q5.2-4.992,4.956-5.04q-.8-.2-1.3-.336a4.829,4.829,0,0,1-.78-.264A.857.857,0,0,1,2.5-5.928a.77.77,0,0,1-.1-.408.806.806,0,0,1,.12-.456,1.042,1.042,0,0,1,.306-.3A1.22,1.22,0,0,1,3.24-7.26,2.208,2.208,0,0,1,3.7-7.308a3.213,3.213,0,0,1,.642.06,1.547,1.547,0,0,1,.522.2,1.06,1.06,0,0,1,.366.4,1.515,1.515,0,0,1,.162.636H7.212A2.631,2.631,0,0,0,6.93-7.278a2.458,2.458,0,0,0-.762-.858,3.218,3.218,0,0,0-1.1-.486,5.451,5.451,0,0,0-1.29-.15,4.39,4.39,0,0,0-1.152.156,3.216,3.216,0,0,0-1.032.48,2.555,2.555,0,0,0-.738.81A2.243,2.243,0,0,0,.576-6.18a2.1,2.1,0,0,0,.222,1,2.119,2.119,0,0,0,.582.69,3.216,3.216,0,0,0,.816.45,8.2,8.2,0,0,0,.936.294q.468.132.924.24a5.809,5.809,0,0,1,.816.252,1.761,1.761,0,0,1,.582.36.752.752,0,0,1,.222.564.828.828,0,0,1-.168.534,1.178,1.178,0,0,1-.42.33,1.879,1.879,0,0,1-.54.162,3.753,3.753,0,0,1-.54.042,2.864,2.864,0,0,1-.72-.09,1.792,1.792,0,0,1-.606-.276,1.363,1.363,0,0,1-.414-.486A1.571,1.571,0,0,1,2.112-2.844Zm10.5-.924H9.84a1.956,1.956,0,0,1,.078-.408,1.253,1.253,0,0,1,.228-.432,1.291,1.291,0,0,1,.432-.342,1.482,1.482,0,0,1,.678-.138,1.2,1.2,0,0,1,.93.336A1.969,1.969,0,0,1,12.612-3.768ZM9.84-2.688h4.476a4.38,4.38,0,0,0-.12-1.38,3.378,3.378,0,0,0-.546-1.176,2.754,2.754,0,0,0-.966-.822,2.95,2.95,0,0,0-1.38-.306,3.213,3.213,0,0,0-1.29.252,3.05,3.05,0,0,0-1,.69,3.041,3.041,0,0,0-.648,1.038,3.618,3.618,0,0,0-.228,1.3,3.777,3.777,0,0,0,.222,1.32,3,3,0,0,0,.63,1.032,2.745,2.745,0,0,0,1,.666A3.543,3.543,0,0,0,11.3.156a3.25,3.25,0,0,0,1.8-.48,2.847,2.847,0,0,0,1.1-1.6h-1.5a1.07,1.07,0,0,1-.456.546,1.519,1.519,0,0,1-.888.258,1.523,1.523,0,0,1-1.1-.372A1.723,1.723,0,0,1,9.84-2.688ZM19.548-4.02h1.668a2.334,2.334,0,0,0-.288-1.038,2.344,2.344,0,0,0-.654-.732,2.835,2.835,0,0,0-.912-.438A3.89,3.89,0,0,0,18.3-6.372a3.384,3.384,0,0,0-1.344.252,2.829,2.829,0,0,0-1,.7,3.01,3.01,0,0,0-.618,1.068,4.133,4.133,0,0,0-.21,1.338,3.475,3.475,0,0,0,.228,1.278,2.978,2.978,0,0,0,.636,1,2.834,2.834,0,0,0,.99.654,3.4,3.4,0,0,0,1.278.234,3.1,3.1,0,0,0,2.028-.648,2.811,2.811,0,0,0,.96-1.884H19.608a1.618,1.618,0,0,1-.414.918,1.248,1.248,0,0,1-.942.342,1.2,1.2,0,0,1-.672-.18,1.344,1.344,0,0,1-.438-.462,2.116,2.116,0,0,1-.234-.63,3.37,3.37,0,0,1-.072-.684,3.515,3.515,0,0,1,.072-.7,2.073,2.073,0,0,1,.246-.648,1.478,1.478,0,0,1,.45-.48,1.2,1.2,0,0,1,.684-.186A1.142,1.142,0,0,1,19.548-4.02ZM22.212-6.2V0h1.7V-2.8A3.429,3.429,0,0,1,24-3.576a1.708,1.708,0,0,1,.282-.63,1.372,1.372,0,0,1,.522-.426,1.815,1.815,0,0,1,.792-.156,3.043,3.043,0,0,1,.324.018q.168.018.288.042V-6.312a1.329,1.329,0,0,0-.372-.06,2.035,2.035,0,0,0-.624.1,2.287,2.287,0,0,0-.564.27,2.123,2.123,0,0,0-.468.42,2.1,2.1,0,0,0-.324.534h-.024V-6.2ZM30.84-3.768H28.068a1.956,1.956,0,0,1,.078-.408,1.253,1.253,0,0,1,.228-.432,1.291,1.291,0,0,1,.432-.342,1.482,1.482,0,0,1,.678-.138,1.2,1.2,0,0,1,.93.336A1.969,1.969,0,0,1,30.84-3.768Zm-2.772,1.08h4.476a4.38,4.38,0,0,0-.12-1.38,3.378,3.378,0,0,0-.546-1.176,2.754,2.754,0,0,0-.966-.822,2.95,2.95,0,0,0-1.38-.306,3.213,3.213,0,0,0-1.29.252,3.05,3.05,0,0,0-1,.69,3.041,3.041,0,0,0-.648,1.038,3.618,3.618,0,0,0-.228,1.3,3.777,3.777,0,0,0,.222,1.32,3,3,0,0,0,.63,1.032,2.745,2.745,0,0,0,1,.666,3.543,3.543,0,0,0,1.32.234,3.25,3.25,0,0,0,1.8-.48,2.847,2.847,0,0,0,1.1-1.6h-1.5a1.07,1.07,0,0,1-.456.546,1.519,1.519,0,0,1-.888.258,1.523,1.523,0,0,1-1.1-.372A1.723,1.723,0,0,1,28.068-2.688ZM35.712-6.2v-1.86h-1.7V-6.2H32.976v1.14h1.032V-1.4a1.585,1.585,0,0,0,.156.756A1.112,1.112,0,0,0,34.59-.2a1.769,1.769,0,0,0,.624.21,4.974,4.974,0,0,0,.75.054q.252,0,.516-.012A4.055,4.055,0,0,0,36.96,0V-1.32a2.387,2.387,0,0,1-.252.036q-.132.012-.276.012a.834.834,0,0,1-.576-.144.834.834,0,0,1-.144-.576V-5.064H36.96V-6.2Zm-33,18.62v-5.4H4.056a3.042,3.042,0,0,1,1.17.2,1.836,1.836,0,0,1,.762.57,2.334,2.334,0,0,1,.414.894,5,5,0,0,1,.126,1.17,3.511,3.511,0,0,1-.18,1.2,2.2,2.2,0,0,1-.48.8,1.743,1.743,0,0,1-.684.438,2.42,2.42,0,0,1-.792.132ZM.828,5.432V14h3.7a4.1,4.1,0,0,0,1.71-.33,3.4,3.4,0,0,0,1.212-.906A3.8,3.8,0,0,0,8.172,11.4a5.936,5.936,0,0,0,.24-1.728,5.339,5.339,0,0,0-.294-1.86A3.656,3.656,0,0,0,7.3,6.488,3.347,3.347,0,0,0,6.066,5.7a4.412,4.412,0,0,0-1.542-.264Zm10.464,1.4v-1.4h-1.7v1.4Zm-1.7.96V14h1.7V7.8ZM12.564,9.7a1.979,1.979,0,0,1,.3-1,2.043,2.043,0,0,1,.672-.636,2.928,2.928,0,0,1,.918-.342,5.219,5.219,0,0,1,1.026-.1,6.953,6.953,0,0,1,.948.066,2.9,2.9,0,0,1,.876.258,1.726,1.726,0,0,1,.648.534,1.492,1.492,0,0,1,.252.906V12.62a6.483,6.483,0,0,0,.048.8A1.453,1.453,0,0,0,18.42,14H16.692a2.445,2.445,0,0,1-.078-.294,2.56,2.56,0,0,1-.042-.306,2.221,2.221,0,0,1-.96.588,3.853,3.853,0,0,1-1.128.168,3.047,3.047,0,0,1-.828-.108,1.9,1.9,0,0,1-.672-.336,1.564,1.564,0,0,1-.45-.576,1.947,1.947,0,0,1-.162-.828,1.809,1.809,0,0,1,.186-.87,1.555,1.555,0,0,1,.48-.546,2.151,2.151,0,0,1,.672-.306,7.174,7.174,0,0,1,.762-.162q.384-.06.756-.1a4.546,4.546,0,0,0,.66-.108,1.151,1.151,0,0,0,.456-.21.461.461,0,0,0,.156-.4.9.9,0,0,0-.09-.438.662.662,0,0,0-.24-.252.944.944,0,0,0-.348-.12,2.848,2.848,0,0,0-.426-.03,1.293,1.293,0,0,0-.792.216.964.964,0,0,0-.336.72Zm3.936,1.26a.764.764,0,0,1-.27.15,2.758,2.758,0,0,1-.348.09q-.186.036-.39.06t-.408.06a3.078,3.078,0,0,0-.378.1,1.118,1.118,0,0,0-.324.162.77.77,0,0,0-.222.258.83.83,0,0,0-.084.4.8.8,0,0,0,.084.384.644.644,0,0,0,.228.246.962.962,0,0,0,.336.126,2.145,2.145,0,0,0,.4.036,1.506,1.506,0,0,0,.78-.168,1.124,1.124,0,0,0,.408-.4,1.286,1.286,0,0,0,.162-.474,3.256,3.256,0,0,0,.03-.384ZM19.524,7.8V14h1.7V11.2a3.429,3.429,0,0,1,.084-.78,1.708,1.708,0,0,1,.282-.63,1.372,1.372,0,0,1,.522-.426,1.815,1.815,0,0,1,.792-.156,3.043,3.043,0,0,1,.324.018q.168.018.288.042V7.688a1.329,1.329,0,0,0-.372-.06,2.035,2.035,0,0,0-.624.1,2.287,2.287,0,0,0-.564.27,2.123,2.123,0,0,0-.468.42,2.1,2.1,0,0,0-.324.534h-.024V7.8Zm7.728,6.972L29.844,7.8H28.08l-1.356,4.248H26.7L25.3,7.8H23.484l2.172,5.82a1.024,1.024,0,0,1,.072.384.851.851,0,0,1-.162.5.662.662,0,0,1-.5.264,3.535,3.535,0,0,1-.5-.012l-.492-.048v1.4q.264.024.522.042t.522.018a2.471,2.471,0,0,0,1.368-.324A2.1,2.1,0,0,0,27.252,14.768Z" transform="translate(-1382 -10275.699)" fill="#892092"/>
    <g id="Group_449" data-name="Group 449" transform="translate(0 -3)">
      <path id="Path_2335" data-name="Path 2335" d="M8,0H24a8,8,0,0,1,8,8V24a8,8,0,0,1-8,8H8a8,8,0,0,1-8-8V8A8,8,0,0,1,8,0Z" transform="translate(-1418 -10285)" fill="none"/>
      <g id="Group_434" data-name="Group 434" transform="translate(-1413.999 -10281.193)">
        <path id="Union_55" data-name="Union 55" d="M13.228,24.443V10.768A10.712,10.712,0,0,1,23.883,0V17.264a7.142,7.142,0,0,1-7.1,7.179Zm-6.125,0A7.142,7.142,0,0,1,0,17.264V0A10.712,10.712,0,0,1,10.654,10.768V24.443Z" transform="translate(0)" fill="#892092"/>
      </g>
    </g>
  </g>
</svg>
