<svg xmlns="http://www.w3.org/2000/svg" width="64" height="64.004" viewBox="0 0 64 64.004">
  <path id="patch-question-fill" d="M23.732,3.481a11.561,11.561,0,0,1,16.538,0l2.488,2.552,3.56-.044a11.561,11.561,0,0,1,11.7,11.7l-.04,3.56,2.544,2.488a11.561,11.561,0,0,1,0,16.538l-2.548,2.488.044,3.56a11.561,11.561,0,0,1-11.7,11.7l-3.56-.04L40.27,60.523a11.561,11.561,0,0,1-16.538,0l-2.488-2.548-3.56.044a11.561,11.561,0,0,1-11.7-11.7l.04-3.56L3.482,40.273a11.561,11.561,0,0,1,0-16.538L6.03,21.247l-.044-3.56a11.561,11.561,0,0,1,11.7-11.7l3.56.04,2.488-2.544Z" transform="translate(-0.001 0)" fill="#f2e8fc"/>
</svg>
